<?xml version="1.0" encoding="utf-8"?>
<!-- Generator: Adobe Illustrator 19.2.1, SVG Export Plug-In . SVG Version: 6.00 Build 0)  -->
<svg version="1.1" id="layer" xmlns="http://www.w3.org/2000/svg" xmlns:xlink="http://www.w3.org/1999/xlink" x="0px" y="0px"
	 viewBox="0 0 652 652" style="enable-background:new 0 0 652 652;" xml:space="preserve">
<style type="text/css">
	.st0{fill:#1D231F;}
	.st1{fill:#61D899;}
</style>
<path class="st0" d="M171.8,355.5v-24.1h17.1c0.6,0,1.5,0,2.6-0.1c1.1-0.1,2.1-0.2,3-0.3c4-0.6,7.3-1.9,9.9-4c2.6-2,4.6-4.6,5.9-7.7
	c1.3-3.1,1.9-6.6,1.9-10.3c0-3.8-0.6-7.3-1.9-10.4c-1.3-3.1-3.2-5.7-5.8-7.7c-2.6-2-5.9-3.4-10-4c-0.9-0.2-1.9-0.3-2.9-0.3
	c-1.1,0-1.9-0.1-2.6-0.1h-28.7v69H171.8z M188.4,320.6h-16.6v-23.3h16.6c0.6,0,1.4,0,2.2,0.1c0.8,0,1.5,0.2,2.2,0.4
	c1.9,0.5,3.4,1.3,4.6,2.5c1.1,1.2,1.9,2.6,2.4,4.1c0.5,1.5,0.7,3.1,0.7,4.5s-0.2,3-0.7,4.5c-0.5,1.5-1.3,2.9-2.4,4.1
	c-1.1,1.2-2.6,2.1-4.6,2.5c-0.7,0.2-1.4,0.3-2.2,0.4C189.8,320.6,189.1,320.6,188.4,320.6z M266.5,332.9c0.5-6.2-0.2-11.6-2.1-16.1
	c-1.8-4.6-4.6-8.1-8.4-10.6c-3.8-2.5-8.4-3.8-13.8-3.8c-5.1,0-9.6,1.1-13.5,3.4c-3.9,2.3-6.9,5.5-9.1,9.7c-2.2,4.2-3.3,9.1-3.3,14.7
	c0,5.2,1.1,9.9,3.4,13.9c2.2,4,5.3,7.2,9.3,9.4c4,2.3,8.6,3.4,13.9,3.4c5,0,9.6-1.3,13.8-3.9c4.2-2.6,7.2-6.2,9.2-10.9l-11.5-3.4
	c-1.1,2.4-2.7,4.2-4.8,5.5c-2.1,1.3-4.5,1.9-7.4,1.9c-4.4,0-7.8-1.4-10.1-4.3c-1.7-2.1-2.8-4.9-3.2-8.2l-0.1-0.7h32H266.5z
	 M254.7,324.1h-25.6l0.1-0.6c0.5-2.4,1.3-4.5,2.5-6.1l0.4-0.6c2.3-2.9,5.9-4.4,10.6-4.4c4.2,0,7.3,1.3,9.3,3.9
	c1.3,1.7,2.2,4.1,2.6,7.2L254.7,324.1z M285.8,355.5v-26.6c0-3.2,0.4-5.8,1.1-7.8c0.7-2,1.6-3.6,2.8-4.8c1.2-1.2,2.5-2,3.9-2.5
	c1.4-0.5,2.9-0.7,4.4-0.7c2.8,0,5,0.6,6.6,1.8c1.6,1.2,2.8,2.7,3.7,4.5c0.8,1.8,1.3,3.7,1.6,5.7s0.3,3.8,0.3,5.4v24.9h11.8v-28.9
	c0-1.2-0.1-2.9-0.3-4.9c-0.2-2-0.7-4.1-1.4-6.3c-0.7-2.2-1.8-4.3-3.3-6.3c-1.5-2-3.5-3.6-6-4.9c-2.5-1.3-5.7-1.9-9.5-1.9
	c-4.9,0-9,1.1-12.3,3.2c-1.5,1-2.9,2.1-4.1,3.3l-0.6,0.7v-5.7H274v51.7H285.8z M344.4,355.5v-26.6c0-3.2,0.4-5.8,1.1-7.8
	c0.7-2,1.6-3.6,2.8-4.8c1.2-1.2,2.5-2,3.9-2.5c1.4-0.5,2.9-0.7,4.4-0.7c2.8,0,5,0.6,6.6,1.8c1.6,1.2,2.8,2.7,3.7,4.5
	c0.8,1.8,1.3,3.7,1.6,5.7s0.3,3.8,0.3,5.4v24.9h11.8v-28.9c0-1.2-0.1-2.9-0.3-4.9c-0.2-2-0.7-4.1-1.4-6.3c-0.7-2.2-1.8-4.3-3.3-6.3
	c-1.5-2-3.5-3.6-6-4.9c-2.5-1.3-5.7-1.9-9.5-1.9c-4.9,0-9,1.1-12.3,3.2c-1.5,1-2.9,2.1-4.1,3.3l-0.6,0.7v-5.7h-10.4v51.7H344.4z
	 M407.2,378.5l29-74.7h-11.6l-14.2,37l-14.5-37h-12.1l21.1,51.4l-8.6,23.4H407.2z M454.2,355.5v-70.4h-11.6v70.4H454.2z M481.6,357
	c4.7,0,8.6-0.9,11.7-2.6c2.3-1.3,4.4-3.1,6.2-5.4l0.3-0.4v7H510v-31.8c0-2.2-0.1-4.3-0.3-6.2c-0.2-1.9-0.8-3.8-1.7-5.6
	c-1.7-3.4-4.3-5.9-7.8-7.4c-3.5-1.5-7.6-2.3-12.2-2.3c-6.1,0-11,1.3-14.6,4c-3.6,2.7-6.1,6.2-7.4,10.5l10.6,3.3
	c0.9-2.7,2.4-4.5,4.6-5.6c2.2-1.1,4.5-1.6,6.8-1.6c3.9,0,6.7,0.8,8.3,2.5c1.2,1.3,2,3.1,2.3,5.4l0.1,0.8l-1.1,0.2
	c-0.9,0.1-1.7,0.2-2.6,0.4l-2.5,0.4c-3.3,0.5-6.4,1-9.2,1.5c-2.8,0.5-5.3,1.1-7.4,1.8c-2.8,0.9-5,2.1-6.8,3.6
	c-1.7,1.5-3,3.2-3.9,5.2c-0.8,2-1.3,4.2-1.3,6.7c0,2.8,0.7,5.4,2,7.8c1.3,2.4,3.3,4.3,5.9,5.7C474.6,356.2,477.8,357,481.6,357z
	 M483.9,347.8c-1.8,0-3.4-0.3-4.6-0.9c-1.2-0.6-2.2-1.3-2.8-2.3c-0.6-1-1-2.1-1-3.4c0-1.1,0.2-2.1,0.7-2.9c0.5-0.8,1.2-1.6,2.1-2.2
	c0.9-0.6,2.1-1.2,3.4-1.7c1.4-0.4,3-0.9,4.8-1.2c1.8-0.4,4-0.8,6.5-1.2c1.4-0.2,3-0.5,4.8-0.8l0.6-0.1l0,0.4c0,0.5,0,1.1-0.1,1.7
	l0,0.9c-0.1,1.9-0.4,3.6-1,5.1c-0.4,1.2-1.1,2.4-2.2,3.8c-1.1,1.3-2.6,2.5-4.5,3.4C488.8,347.3,486.5,347.8,483.9,347.8z
	 M532.5,355.5v-26.6c0-3.2,0.4-5.8,1.1-7.8c0.7-2,1.6-3.6,2.8-4.8c1.2-1.2,2.5-2,3.9-2.5c1.4-0.5,2.9-0.7,4.4-0.7
	c2.8,0,5,0.6,6.6,1.8c1.6,1.2,2.8,2.7,3.7,4.5c0.8,1.8,1.3,3.7,1.6,5.7c0.2,2,0.3,3.8,0.3,5.4v24.9h11.8v-28.9
	c0-1.2-0.1-2.9-0.3-4.9c-0.2-2-0.7-4.1-1.4-6.3c-0.7-2.2-1.8-4.3-3.3-6.3c-1.5-2-3.5-3.6-6-4.9c-2.5-1.3-5.7-1.9-9.5-1.9
	c-4.9,0-9,1.1-12.3,3.2c-1.5,1-2.9,2.1-4.1,3.3l-0.6,0.7v-5.7h-10.4v51.7H532.5z M625.9,332.9c0.5-6.2-0.2-11.6-2.1-16.1
	c-1.8-4.6-4.6-8.1-8.4-10.6c-3.8-2.5-8.4-3.8-13.8-3.8c-5.1,0-9.6,1.1-13.5,3.4c-3.9,2.3-6.9,5.5-9.1,9.7c-2.2,4.2-3.3,9.1-3.3,14.7
	c0,5.2,1.1,9.9,3.4,13.9c2.2,4,5.3,7.2,9.3,9.4c4,2.3,8.6,3.4,13.9,3.4c5,0,9.6-1.3,13.8-3.9c4.2-2.6,7.2-6.2,9.2-10.9l-11.5-3.4
	c-1.1,2.4-2.7,4.2-4.8,5.5s-4.5,1.9-7.4,1.9c-4.4,0-7.8-1.4-10.1-4.3c-1.7-2.1-2.8-4.9-3.2-8.2l-0.1-0.7h32H625.9z M614.1,324.1
	h-25.6l0.1-0.6c0.5-2.4,1.3-4.5,2.5-6.1l0.4-0.6c2.3-2.9,5.9-4.4,10.6-4.4c4.2,0,7.3,1.3,9.3,3.9c1.3,1.7,2.2,4.1,2.6,7.2
	L614.1,324.1z"/>
<path class="st1" d="M104.7,299.3l-10.5-10.7l-5.8-5.9c-8-8.1-20.8-8.1-28.8,0l-2,2l8.5,8.7c1.1,1.1,2.9,1.1,4,0
	c1-1,2.4-1.6,3.8-1.6c1.4,0,2.8,0.6,3.8,1.6l5.8,5.9L74,309l-37.1-37.6l-10.5,10.7l16.9,17.1L26,316.8l62.9,63.8l10.6-10.7
	l-14.9-15.1l23-23.4c7.9-8.1,7.9-21.1,0-29.2L104.7,299.3z M97,320.7L75.9,342c-1.1,1.1-2.9,1.1-4,0l-24.8-25.2l6.7-6.8L74,330.5
	L94.1,310l2.9,2.9c1,1,1.6,2.4,1.6,3.9S98,319.6,97,320.7z M110.4,293.5l11.1-11.3L111,271.5l-13.2,13.3l8.5,8.7
	C107.5,294.6,109.3,294.6,110.4,293.5z"/>
</svg>
